<?xml version="1.0" encoding="UTF-8"?><svg xmlns="http://www.w3.org/2000/svg" xmlns:xlink="http://www.w3.org/1999/xlink" contentScriptType="text/ecmascript" width="1125" zoomAndPan="magnify" contentStyleType="text/css" viewBox="0 0 1125 1124.99995" height="1124.99995" preserveAspectRatio="xMidYMid meet" version="1.0"><defs><clipPath id="clip-0"><path d="M 619 112.5 L 1011 112.5 L 1011 504 L 619 504 Z M 619 112.5 " clip-rule="nonzero"/></clipPath></defs><path fill="rgb(0%, 0%, 0%)" d="M 506 309.339844 C 506 312.542969 505.921875 315.742188 505.765625 318.9375 C 505.605469 322.136719 505.371094 325.328125 505.058594 328.515625 C 504.742188 331.699219 504.351562 334.878906 503.882812 338.042969 C 503.414062 341.210938 502.867188 344.363281 502.242188 347.503906 C 501.617188 350.644531 500.914062 353.765625 500.136719 356.871094 C 499.359375 359.976562 498.503906 363.0625 497.574219 366.125 C 496.648438 369.191406 495.644531 372.230469 494.5625 375.242188 C 493.484375 378.257812 492.332031 381.246094 491.109375 384.203125 C 489.882812 387.160156 488.585938 390.085938 487.21875 392.980469 C 485.847656 395.875 484.410156 398.734375 482.902344 401.558594 C 481.390625 404.378906 479.8125 407.164062 478.167969 409.910156 C 476.523438 412.65625 474.808594 415.359375 473.03125 418.023438 C 471.253906 420.683594 469.410156 423.300781 467.503906 425.875 C 465.59375 428.445312 463.625 430.96875 461.59375 433.441406 C 459.5625 435.917969 457.472656 438.339844 455.324219 440.714844 C 453.171875 443.085938 450.964844 445.402344 448.703125 447.667969 C 446.4375 449.929688 444.121094 452.136719 441.75 454.289062 C 439.375 456.4375 436.953125 458.527344 434.476562 460.558594 C 432.003906 462.589844 429.480469 464.558594 426.910156 466.46875 C 424.335938 468.375 421.71875 470.21875 419.058594 471.996094 C 416.394531 473.773438 413.691406 475.488281 410.945312 477.132812 C 408.199219 478.777344 405.414062 480.355469 402.589844 481.867188 C 399.769531 483.375 396.910156 484.8125 394.015625 486.183594 C 391.121094 487.550781 388.195312 488.847656 385.238281 490.074219 C 382.28125 491.296875 379.292969 492.449219 376.277344 493.527344 C 373.265625 494.609375 370.226562 495.613281 367.160156 496.542969 C 364.097656 497.46875 361.011719 498.324219 357.90625 499.101562 C 354.800781 499.878906 351.679688 500.582031 348.539062 501.207031 C 345.398438 501.832031 342.246094 502.378906 339.078125 502.847656 C 335.910156 503.316406 332.734375 503.707031 329.550781 504.023438 C 326.363281 504.335938 323.171875 504.570312 319.972656 504.730469 C 316.777344 504.886719 313.578125 504.964844 310.375 504.964844 C 307.171875 504.964844 303.972656 504.886719 300.777344 504.730469 C 297.578125 504.570312 294.386719 504.335938 291.199219 504.023438 C 288.015625 503.707031 284.835938 503.316406 281.671875 502.847656 C 278.503906 502.378906 275.351562 501.832031 272.210938 501.207031 C 269.070312 500.582031 265.949219 499.878906 262.84375 499.101562 C 259.734375 498.324219 256.652344 497.46875 253.589844 496.542969 C 250.523438 495.613281 247.484375 494.609375 244.472656 493.527344 C 241.457031 492.449219 238.46875 491.296875 235.511719 490.074219 C 232.554688 488.847656 229.628906 487.550781 226.734375 486.183594 C 223.839844 484.8125 220.980469 483.375 218.15625 481.867188 C 215.335938 480.355469 212.550781 478.777344 209.804688 477.132812 C 207.058594 475.488281 204.351562 473.773438 201.691406 471.996094 C 199.03125 470.21875 196.414062 468.375 193.839844 466.46875 C 191.269531 464.558594 188.746094 462.589844 186.273438 460.558594 C 183.796875 458.527344 181.375 456.4375 179 454.289062 C 176.628906 452.136719 174.3125 449.929688 172.046875 447.667969 C 169.785156 445.402344 167.578125 443.085938 165.425781 440.714844 C 163.277344 438.339844 161.1875 435.917969 159.15625 433.441406 C 157.125 430.96875 155.15625 428.445312 153.246094 425.875 C 151.339844 423.300781 149.496094 420.683594 147.71875 418.023438 C 145.941406 415.359375 144.226562 412.65625 142.582031 409.910156 C 140.9375 407.164062 139.359375 404.378906 137.847656 401.558594 C 136.339844 398.734375 134.902344 395.875 133.53125 392.980469 C 132.164062 390.085938 130.867188 387.160156 129.640625 384.203125 C 128.414062 381.246094 127.265625 378.257812 126.183594 375.242188 C 125.105469 372.230469 124.101562 369.191406 123.171875 366.125 C 122.246094 363.0625 121.390625 359.976562 120.613281 356.871094 C 119.835938 353.765625 119.132812 350.644531 118.507812 347.503906 C 117.882812 344.363281 117.335938 341.210938 116.867188 338.042969 C 116.398438 334.878906 116.003906 331.699219 115.691406 328.515625 C 115.378906 325.328125 115.144531 322.136719 114.984375 318.9375 C 114.828125 315.742188 114.75 312.542969 114.75 309.339844 C 114.75 306.136719 114.828125 302.9375 114.984375 299.742188 C 115.144531 296.542969 115.378906 293.351562 115.691406 290.164062 C 116.003906 286.980469 116.398438 283.800781 116.867188 280.636719 C 117.335938 277.46875 117.882812 274.316406 118.507812 271.175781 C 119.132812 268.035156 119.835938 264.914062 120.613281 261.808594 C 121.390625 258.703125 122.246094 255.617188 123.171875 252.554688 C 124.101562 249.488281 125.105469 246.449219 126.183594 243.4375 C 127.265625 240.421875 128.414062 237.433594 129.640625 234.476562 C 130.867188 231.519531 132.164062 228.59375 133.53125 225.699219 C 134.902344 222.804688 136.339844 219.945312 137.847656 217.121094 C 139.359375 214.300781 140.9375 211.515625 142.582031 208.769531 C 144.226562 206.023438 145.941406 203.320312 147.71875 200.65625 C 149.496094 197.996094 151.339844 195.378906 153.246094 192.804688 C 155.15625 190.234375 157.125 187.710938 159.15625 185.238281 C 161.1875 182.761719 163.277344 180.339844 165.425781 177.964844 C 167.578125 175.59375 169.785156 173.277344 172.046875 171.011719 C 174.3125 168.75 176.628906 166.542969 179 164.390625 C 181.375 162.242188 183.796875 160.152344 186.273438 158.121094 C 188.746094 156.089844 191.269531 154.121094 193.839844 152.210938 C 196.414062 150.304688 199.03125 148.460938 201.691406 146.683594 C 204.351562 144.90625 207.058594 143.191406 209.804688 141.546875 C 212.550781 139.902344 215.335938 138.324219 218.15625 136.8125 C 220.980469 135.304688 223.839844 133.867188 226.734375 132.496094 C 229.628906 131.128906 232.554688 129.832031 235.511719 128.605469 C 238.46875 127.382812 241.457031 126.230469 244.472656 125.152344 C 247.484375 124.070312 250.523438 123.066406 253.589844 122.136719 C 256.652344 121.210938 259.734375 120.355469 262.84375 119.578125 C 265.949219 118.800781 269.070312 118.097656 272.210938 117.472656 C 275.351562 116.847656 278.503906 116.300781 281.671875 115.832031 C 284.835938 115.363281 288.015625 114.972656 291.199219 114.65625 C 294.386719 114.34375 297.578125 114.109375 300.777344 113.949219 C 303.972656 113.792969 307.171875 113.714844 310.375 113.714844 C 313.578125 113.714844 316.777344 113.792969 319.972656 113.949219 C 323.171875 114.109375 326.363281 114.34375 329.550781 114.65625 C 332.734375 114.972656 335.910156 115.363281 339.078125 115.832031 C 342.246094 116.300781 345.398438 116.847656 348.539062 117.472656 C 351.679688 118.097656 354.800781 118.800781 357.90625 119.578125 C 361.011719 120.355469 364.097656 121.210938 367.160156 122.136719 C 370.226562 123.066406 373.265625 124.070312 376.277344 125.152344 C 379.292969 126.230469 382.28125 127.382812 385.238281 128.605469 C 388.195312 129.832031 391.121094 131.128906 394.015625 132.496094 C 396.910156 133.867188 399.769531 135.304688 402.589844 136.8125 C 405.414062 138.324219 408.199219 139.902344 410.945312 141.546875 C 413.691406 143.191406 416.394531 144.90625 419.058594 146.683594 C 421.71875 148.460938 424.335938 150.304688 426.910156 152.210938 C 429.480469 154.121094 432.003906 156.089844 434.476562 158.121094 C 436.953125 160.152344 439.375 162.242188 441.75 164.390625 C 444.121094 166.542969 446.4375 168.75 448.703125 171.011719 C 450.964844 173.277344 453.171875 175.59375 455.324219 177.964844 C 457.472656 180.339844 459.5625 182.761719 461.59375 185.238281 C 463.625 187.710938 465.59375 190.234375 467.503906 192.804688 C 469.410156 195.378906 471.253906 197.996094 473.03125 200.65625 C 474.808594 203.320312 476.523438 206.023438 478.167969 208.769531 C 479.8125 211.515625 481.390625 214.300781 482.902344 217.121094 C 484.410156 219.945312 485.847656 222.804688 487.21875 225.699219 C 488.585938 228.59375 489.882812 231.519531 491.109375 234.476562 C 492.332031 237.433594 493.484375 240.421875 494.5625 243.4375 C 495.644531 246.449219 496.648438 249.488281 497.574219 252.554688 C 498.503906 255.617188 499.359375 258.703125 500.136719 261.808594 C 500.914062 264.914062 501.617188 268.035156 502.242188 271.175781 C 502.867188 274.316406 503.414062 277.46875 503.882812 280.636719 C 504.351562 283.800781 504.742188 286.980469 505.058594 290.164062 C 505.371094 293.351562 505.605469 296.542969 505.765625 299.742188 C 505.921875 302.9375 506 306.136719 506 309.339844 Z M 506 309.339844 " fill-opacity="1" fill-rule="nonzero"/><path fill="rgb(0%, 0%, 0%)" d="M 506 812.375 C 506 815.578125 505.921875 818.777344 505.765625 821.972656 C 505.605469 825.171875 505.371094 828.363281 505.058594 831.550781 C 504.742188 834.734375 504.351562 837.914062 503.882812 841.078125 C 503.414062 844.246094 502.867188 847.398438 502.242188 850.539062 C 501.617188 853.679688 500.914062 856.800781 500.136719 859.90625 C 499.359375 863.011719 498.503906 866.097656 497.574219 869.160156 C 496.648438 872.226562 495.644531 875.265625 494.5625 878.277344 C 493.484375 881.292969 492.332031 884.28125 491.109375 887.238281 C 489.882812 890.195312 488.585938 893.121094 487.21875 896.015625 C 485.847656 898.910156 484.410156 901.769531 482.902344 904.59375 C 481.390625 907.414062 479.8125 910.199219 478.167969 912.945312 C 476.523438 915.691406 474.808594 918.394531 473.03125 921.058594 C 471.253906 923.71875 469.410156 926.335938 467.503906 928.910156 C 465.59375 931.480469 463.625 934.003906 461.59375 936.476562 C 459.5625 938.953125 457.472656 941.375 455.324219 943.75 C 453.171875 946.121094 450.964844 948.4375 448.703125 950.703125 C 446.4375 952.964844 444.121094 955.171875 441.75 957.324219 C 439.375 959.472656 436.953125 961.5625 434.476562 963.59375 C 432.003906 965.625 429.480469 967.59375 426.910156 969.503906 C 424.335938 971.410156 421.71875 973.253906 419.058594 975.03125 C 416.394531 976.808594 413.691406 978.523438 410.945312 980.167969 C 408.199219 981.8125 405.414062 983.390625 402.589844 984.902344 C 399.769531 986.410156 396.910156 987.847656 394.015625 989.21875 C 391.121094 990.585938 388.195312 991.882812 385.238281 993.109375 C 382.28125 994.332031 379.292969 995.484375 376.277344 996.566406 C 373.265625 997.644531 370.226562 998.648438 367.160156 999.578125 C 364.097656 1000.503906 361.011719 1001.359375 357.90625 1002.136719 C 354.800781 1002.914062 351.679688 1003.617188 348.539062 1004.242188 C 345.398438 1004.867188 342.246094 1005.414062 339.078125 1005.882812 C 335.910156 1006.351562 332.734375 1006.746094 329.550781 1007.058594 C 326.363281 1007.371094 323.171875 1007.605469 319.972656 1007.765625 C 316.777344 1007.921875 313.578125 1008 310.375 1008 C 307.171875 1008 303.972656 1007.921875 300.777344 1007.765625 C 297.578125 1007.605469 294.386719 1007.371094 291.199219 1007.058594 C 288.015625 1006.746094 284.835938 1006.351562 281.671875 1005.882812 C 278.503906 1005.414062 275.351562 1004.867188 272.210938 1004.242188 C 269.070312 1003.617188 265.949219 1002.914062 262.84375 1002.136719 C 259.734375 1001.359375 256.652344 1000.503906 253.589844 999.578125 C 250.523438 998.648438 247.484375 997.644531 244.472656 996.566406 C 241.457031 995.484375 238.46875 994.332031 235.511719 993.109375 C 232.554688 991.882812 229.628906 990.585938 226.734375 989.21875 C 223.839844 987.847656 220.980469 986.410156 218.15625 984.902344 C 215.335938 983.390625 212.550781 981.8125 209.804688 980.167969 C 207.058594 978.523438 204.351562 976.808594 201.691406 975.03125 C 199.03125 973.253906 196.414062 971.410156 193.839844 969.503906 C 191.269531 967.59375 188.746094 965.625 186.273438 963.59375 C 183.796875 961.5625 181.375 959.472656 179 957.324219 C 176.628906 955.171875 174.3125 952.964844 172.046875 950.703125 C 169.785156 948.4375 167.578125 946.121094 165.425781 943.75 C 163.277344 941.375 161.1875 938.953125 159.15625 936.476562 C 157.125 934.003906 155.15625 931.480469 153.246094 928.910156 C 151.339844 926.335938 149.496094 923.71875 147.71875 921.058594 C 145.941406 918.394531 144.226562 915.691406 142.582031 912.945312 C 140.9375 910.199219 139.359375 907.414062 137.847656 904.59375 C 136.339844 901.769531 134.902344 898.910156 133.53125 896.015625 C 132.164062 893.121094 130.867188 890.195312 129.640625 887.238281 C 128.414062 884.28125 127.265625 881.292969 126.183594 878.277344 C 125.105469 875.265625 124.101562 872.226562 123.171875 869.160156 C 122.246094 866.097656 121.390625 863.011719 120.613281 859.90625 C 119.835938 856.800781 119.132812 853.679688 118.507812 850.539062 C 117.882812 847.398438 117.335938 844.246094 116.867188 841.078125 C 116.398438 837.914062 116.003906 834.734375 115.691406 831.550781 C 115.378906 828.363281 115.144531 825.171875 114.984375 821.972656 C 114.828125 818.777344 114.75 815.578125 114.75 812.375 C 114.75 809.171875 114.828125 805.972656 114.984375 802.777344 C 115.144531 799.578125 115.378906 796.386719 115.691406 793.199219 C 116.003906 790.015625 116.398438 786.835938 116.867188 783.671875 C 117.335938 780.503906 117.882812 777.351562 118.507812 774.210938 C 119.132812 771.070312 119.835938 767.949219 120.613281 764.84375 C 121.390625 761.738281 122.246094 758.652344 123.171875 755.589844 C 124.101562 752.523438 125.105469 749.484375 126.183594 746.472656 C 127.265625 743.457031 128.414062 740.46875 129.640625 737.511719 C 130.867188 734.554688 132.164062 731.628906 133.53125 728.734375 C 134.902344 725.839844 136.339844 722.980469 137.847656 720.15625 C 139.359375 717.335938 140.9375 714.550781 142.582031 711.804688 C 144.226562 709.058594 145.941406 706.355469 147.71875 703.691406 C 149.496094 701.03125 151.339844 698.414062 153.246094 695.839844 C 155.15625 693.269531 157.125 690.746094 159.15625 688.273438 C 161.1875 685.796875 163.277344 683.375 165.425781 681 C 167.578125 678.628906 169.785156 676.3125 172.046875 674.046875 C 174.3125 671.785156 176.628906 669.578125 179 667.425781 C 181.375 665.277344 183.796875 663.1875 186.273438 661.15625 C 188.746094 659.125 191.269531 657.15625 193.839844 655.246094 C 196.414062 653.339844 199.03125 651.496094 201.691406 649.71875 C 204.351562 647.941406 207.058594 646.226562 209.804688 644.582031 C 212.550781 642.9375 215.335938 641.359375 218.15625 639.847656 C 220.980469 638.339844 223.839844 636.902344 226.734375 635.53125 C 229.628906 634.164062 232.554688 632.867188 235.511719 631.640625 C 238.46875 630.417969 241.457031 629.265625 244.472656 628.1875 C 247.484375 627.105469 250.523438 626.101562 253.589844 625.171875 C 256.652344 624.246094 259.734375 623.390625 262.84375 622.613281 C 265.949219 621.835938 269.070312 621.132812 272.210938 620.507812 C 275.351562 619.882812 278.503906 619.335938 281.671875 618.867188 C 284.835938 618.398438 288.015625 618.007812 291.199219 617.691406 C 294.386719 617.378906 297.578125 617.144531 300.777344 616.984375 C 303.972656 616.828125 307.171875 616.75 310.375 616.75 C 313.578125 616.75 316.777344 616.828125 319.972656 616.984375 C 323.171875 617.144531 326.363281 617.378906 329.550781 617.691406 C 332.734375 618.007812 335.910156 618.398438 339.078125 618.867188 C 342.246094 619.335938 345.398438 619.882812 348.539062 620.507812 C 351.679688 621.132812 354.800781 621.835938 357.90625 622.613281 C 361.011719 623.390625 364.097656 624.246094 367.160156 625.175781 C 370.226562 626.101562 373.265625 627.105469 376.277344 628.1875 C 379.292969 629.265625 382.28125 630.417969 385.238281 631.640625 C 388.195312 632.867188 391.121094 634.164062 394.015625 635.53125 C 396.910156 636.902344 399.769531 638.339844 402.589844 639.847656 C 405.414062 641.359375 408.199219 642.9375 410.945312 644.582031 C 413.691406 646.226562 416.394531 647.941406 419.058594 649.71875 C 421.71875 651.496094 424.335938 653.339844 426.910156 655.246094 C 429.480469 657.15625 432.003906 659.125 434.476562 661.15625 C 436.953125 663.1875 439.375 665.277344 441.75 667.425781 C 444.121094 669.578125 446.4375 671.785156 448.703125 674.046875 C 450.964844 676.3125 453.171875 678.628906 455.324219 681 C 457.472656 683.375 459.5625 685.796875 461.59375 688.273438 C 463.625 690.746094 465.59375 693.269531 467.503906 695.839844 C 469.410156 698.414062 471.253906 701.03125 473.03125 703.691406 C 474.808594 706.355469 476.523438 709.058594 478.167969 711.804688 C 479.8125 714.550781 481.390625 717.335938 482.902344 720.15625 C 484.410156 722.980469 485.847656 725.839844 487.21875 728.734375 C 488.585938 731.628906 489.882812 734.554688 491.109375 737.511719 C 492.332031 740.46875 493.484375 743.457031 494.5625 746.472656 C 495.644531 749.484375 496.648438 752.523438 497.574219 755.589844 C 498.503906 758.652344 499.359375 761.738281 500.136719 764.84375 C 500.914062 767.949219 501.617188 771.070312 502.242188 774.210938 C 502.867188 777.351562 503.414062 780.503906 503.882812 783.671875 C 504.351562 786.835938 504.742188 790.015625 505.058594 793.199219 C 505.371094 796.386719 505.605469 799.578125 505.765625 802.777344 C 505.921875 805.972656 506 809.171875 506 812.375 Z M 506 812.375 " fill-opacity="1" fill-rule="nonzero"/><g clip-path="url(#clip-0)"><path fill="rgb(0%, 0%, 0%)" d="M 1010.25 308.125 C 1010.25 311.328125 1010.171875 314.527344 1010.015625 317.722656 C 1009.855469 320.921875 1009.621094 324.113281 1009.308594 327.300781 C 1008.996094 330.484375 1008.601562 333.660156 1008.132812 336.828125 C 1007.664062 339.996094 1007.117188 343.148438 1006.492188 346.289062 C 1005.867188 349.429688 1005.164062 352.550781 1004.386719 355.65625 C 1003.609375 358.761719 1002.753906 361.847656 1001.828125 364.910156 C 1000.898438 367.976562 999.894531 371.015625 998.816406 374.027344 C 997.734375 377.042969 996.585938 380.027344 995.359375 382.988281 C 994.132812 385.945312 992.835938 388.871094 991.46875 391.765625 C 990.097656 394.660156 988.660156 397.519531 987.152344 400.339844 C 985.640625 403.164062 984.0625 405.949219 982.417969 408.695312 C 980.773438 411.441406 979.058594 414.144531 977.28125 416.808594 C 975.503906 419.46875 973.660156 422.085938 971.753906 424.660156 C 969.84375 427.230469 967.875 429.753906 965.84375 432.226562 C 963.8125 434.703125 961.722656 437.125 959.574219 439.5 C 957.421875 441.871094 955.214844 444.1875 952.953125 446.453125 C 950.6875 448.714844 948.371094 450.921875 946 453.074219 C 943.625 455.222656 941.203125 457.3125 938.726562 459.34375 C 936.253906 461.375 933.730469 463.34375 931.160156 465.253906 C 928.585938 467.160156 925.96875 469.003906 923.308594 470.78125 C 920.644531 472.558594 917.941406 474.273438 915.195312 475.917969 C 912.449219 477.5625 909.664062 479.140625 906.84375 480.652344 C 904.019531 482.160156 901.160156 483.597656 898.265625 484.96875 C 895.371094 486.335938 892.445312 487.632812 889.488281 488.859375 C 886.53125 490.082031 883.542969 491.234375 880.527344 492.3125 C 877.515625 493.394531 874.476562 494.398438 871.410156 495.324219 C 868.347656 496.253906 865.261719 497.109375 862.15625 497.886719 C 859.050781 498.664062 855.929688 499.367188 852.789062 499.992188 C 849.648438 500.617188 846.496094 501.164062 843.328125 501.632812 C 840.164062 502.101562 836.984375 502.492188 833.800781 502.808594 C 830.613281 503.121094 827.421875 503.355469 824.222656 503.515625 C 821.027344 503.671875 817.828125 503.75 814.625 503.75 C 811.421875 503.75 808.222656 503.671875 805.027344 503.515625 C 801.828125 503.355469 798.636719 503.121094 795.449219 502.808594 C 792.265625 502.492188 789.085938 502.101562 785.921875 501.632812 C 782.753906 501.164062 779.601562 500.617188 776.460938 499.992188 C 773.320312 499.367188 770.199219 498.664062 767.09375 497.886719 C 763.988281 497.109375 760.902344 496.253906 757.839844 495.324219 C 754.773438 494.398438 751.734375 493.394531 748.722656 492.3125 C 745.707031 491.234375 742.71875 490.082031 739.761719 488.859375 C 736.804688 487.632812 733.878906 486.335938 730.984375 484.96875 C 728.089844 483.597656 725.230469 482.160156 722.410156 480.652344 C 719.585938 479.140625 716.800781 477.5625 714.054688 475.917969 C 711.308594 474.273438 708.605469 472.558594 705.941406 470.78125 C 703.28125 469.003906 700.664062 467.160156 698.089844 465.253906 C 695.519531 463.34375 692.996094 461.375 690.523438 459.34375 C 688.046875 457.3125 685.625 455.222656 683.25 453.074219 C 680.878906 450.921875 678.5625 448.714844 676.296875 446.453125 C 674.035156 444.1875 671.828125 441.871094 669.675781 439.5 C 667.527344 437.125 665.4375 434.703125 663.40625 432.226562 C 661.375 429.753906 659.40625 427.230469 657.496094 424.660156 C 655.589844 422.085938 653.746094 419.46875 651.96875 416.808594 C 650.191406 414.144531 648.476562 411.441406 646.832031 408.695312 C 645.1875 405.949219 643.609375 403.164062 642.097656 400.339844 C 640.589844 397.519531 639.152344 394.660156 637.78125 391.765625 C 636.414062 388.871094 635.117188 385.945312 633.890625 382.988281 C 632.667969 380.027344 631.515625 377.042969 630.4375 374.027344 C 629.355469 371.015625 628.351562 367.976562 627.425781 364.910156 C 626.496094 361.847656 625.640625 358.761719 624.863281 355.65625 C 624.085938 352.550781 623.382812 349.429688 622.757812 346.289062 C 622.132812 343.148438 621.585938 339.996094 621.117188 336.828125 C 620.648438 333.660156 620.257812 330.484375 619.941406 327.300781 C 619.628906 324.113281 619.394531 320.921875 619.234375 317.722656 C 619.078125 314.527344 619 311.328125 619 308.125 C 619 304.921875 619.078125 301.722656 619.234375 298.527344 C 619.394531 295.328125 619.628906 292.136719 619.941406 288.949219 C 620.257812 285.765625 620.648438 282.585938 621.117188 279.421875 C 621.585938 276.253906 622.132812 273.101562 622.757812 269.960938 C 623.382812 266.820312 624.085938 263.699219 624.863281 260.59375 C 625.640625 257.484375 626.496094 254.402344 627.425781 251.339844 C 628.351562 248.273438 629.355469 245.234375 630.4375 242.222656 C 631.515625 239.207031 632.667969 236.21875 633.890625 233.261719 C 635.117188 230.304688 636.414062 227.378906 637.78125 224.484375 C 639.152344 221.589844 640.589844 218.730469 642.097656 215.90625 C 643.609375 213.085938 645.1875 210.300781 646.832031 207.554688 C 648.476562 204.808594 650.191406 202.101562 651.96875 199.441406 C 653.746094 196.78125 655.589844 194.164062 657.496094 191.589844 C 659.40625 189.019531 661.375 186.496094 663.40625 184.023438 C 665.4375 181.546875 667.527344 179.125 669.675781 176.75 C 671.828125 174.378906 674.035156 172.0625 676.296875 169.796875 C 678.5625 167.535156 680.878906 165.328125 683.25 163.175781 C 685.625 161.027344 688.046875 158.9375 690.523438 156.90625 C 692.996094 154.875 695.519531 152.90625 698.089844 150.996094 C 700.664062 149.089844 703.28125 147.246094 705.941406 145.46875 C 708.605469 143.691406 711.308594 141.976562 714.054688 140.332031 C 716.800781 138.6875 719.585938 137.109375 722.410156 135.597656 C 725.230469 134.089844 728.089844 132.652344 730.984375 131.28125 C 733.878906 129.914062 736.804688 128.617188 739.761719 127.390625 C 742.71875 126.164062 745.707031 125.015625 748.722656 123.933594 C 751.734375 122.855469 754.773438 121.851562 757.839844 120.921875 C 760.902344 119.996094 763.988281 119.140625 767.09375 118.363281 C 770.199219 117.585938 773.320312 116.882812 776.460938 116.257812 C 779.601562 115.632812 782.753906 115.085938 785.921875 114.617188 C 789.085938 114.148438 792.265625 113.753906 795.449219 113.441406 C 798.636719 113.128906 801.828125 112.894531 805.027344 112.734375 C 808.222656 112.578125 811.421875 112.5 814.625 112.5 C 817.828125 112.5 821.027344 112.578125 824.222656 112.734375 C 827.421875 112.894531 830.613281 113.128906 833.800781 113.441406 C 836.984375 113.753906 840.164062 114.148438 843.328125 114.617188 C 846.496094 115.085938 849.648438 115.632812 852.789062 116.257812 C 855.929688 116.882812 859.050781 117.585938 862.15625 118.363281 C 865.261719 119.140625 868.347656 119.996094 871.410156 120.921875 C 874.476562 121.851562 877.515625 122.855469 880.527344 123.933594 C 883.542969 125.015625 886.53125 126.164062 889.488281 127.390625 C 892.445312 128.617188 895.371094 129.914062 898.265625 131.28125 C 901.160156 132.652344 904.019531 134.089844 906.84375 135.597656 C 909.664062 137.109375 912.449219 138.6875 915.195312 140.332031 C 917.941406 141.976562 920.644531 143.691406 923.308594 145.46875 C 925.96875 147.246094 928.585938 149.089844 931.160156 150.996094 C 933.730469 152.90625 936.253906 154.875 938.726562 156.90625 C 941.203125 158.9375 943.625 161.027344 946 163.175781 C 948.371094 165.328125 950.6875 167.535156 952.953125 169.796875 C 955.214844 172.0625 957.421875 174.378906 959.574219 176.75 C 961.722656 179.125 963.8125 181.546875 965.84375 184.023438 C 967.875 186.496094 969.84375 189.019531 971.753906 191.589844 C 973.660156 194.164062 975.503906 196.78125 977.28125 199.441406 C 979.058594 202.101562 980.773438 204.808594 982.417969 207.554688 C 984.0625 210.300781 985.640625 213.085938 987.152344 215.90625 C 988.660156 218.730469 990.097656 221.589844 991.46875 224.484375 C 992.835938 227.378906 994.132812 230.304688 995.359375 233.261719 C 996.585938 236.21875 997.734375 239.207031 998.816406 242.222656 C 999.894531 245.234375 1000.898438 248.273438 1001.828125 251.339844 C 1002.753906 254.402344 1003.609375 257.484375 1004.386719 260.59375 C 1005.164062 263.699219 1005.867188 266.820312 1006.492188 269.960938 C 1007.117188 273.101562 1007.664062 276.253906 1008.132812 279.421875 C 1008.601562 282.585938 1008.996094 285.765625 1009.308594 288.949219 C 1009.621094 292.136719 1009.855469 295.328125 1010.015625 298.527344 C 1010.171875 301.722656 1010.25 304.921875 1010.25 308.125 Z M 1010.25 308.125 " fill-opacity="1" fill-rule="nonzero"/></g><path fill="rgb(100%, 92.158508%, 30.979919%)" d="M 1010.25 812.375 C 1010.25 815.578125 1010.171875 818.777344 1010.015625 821.972656 C 1009.855469 825.171875 1009.621094 828.363281 1009.308594 831.550781 C 1008.996094 834.734375 1008.601562 837.914062 1008.132812 841.078125 C 1007.664062 844.246094 1007.117188 847.398438 1006.492188 850.539062 C 1005.867188 853.679688 1005.164062 856.800781 1004.386719 859.90625 C 1003.609375 863.011719 1002.753906 866.097656 1001.828125 869.160156 C 1000.898438 872.226562 999.894531 875.265625 998.816406 878.277344 C 997.734375 881.292969 996.585938 884.28125 995.359375 887.238281 C 994.132812 890.195312 992.835938 893.121094 991.46875 896.015625 C 990.097656 898.910156 988.660156 901.769531 987.152344 904.59375 C 985.640625 907.414062 984.0625 910.199219 982.417969 912.945312 C 980.773438 915.691406 979.058594 918.394531 977.28125 921.058594 C 975.503906 923.71875 973.660156 926.335938 971.753906 928.910156 C 969.84375 931.480469 967.875 934.003906 965.84375 936.476562 C 963.8125 938.953125 961.722656 941.375 959.574219 943.75 C 957.421875 946.121094 955.214844 948.4375 952.953125 950.703125 C 950.6875 952.964844 948.371094 955.171875 946 957.324219 C 943.625 959.472656 941.203125 961.5625 938.726562 963.59375 C 936.253906 965.625 933.730469 967.59375 931.160156 969.503906 C 928.585938 971.410156 925.96875 973.253906 923.308594 975.03125 C 920.644531 976.808594 917.941406 978.523438 915.195312 980.167969 C 912.449219 981.8125 909.664062 983.390625 906.84375 984.902344 C 904.019531 986.410156 901.160156 987.847656 898.265625 989.21875 C 895.371094 990.585938 892.445312 991.882812 889.488281 993.109375 C 886.53125 994.332031 883.542969 995.484375 880.527344 996.566406 C 877.515625 997.644531 874.476562 998.648438 871.410156 999.578125 C 868.347656 1000.503906 865.261719 1001.359375 862.15625 1002.136719 C 859.050781 1002.914062 855.929688 1003.617188 852.789062 1004.242188 C 849.648438 1004.867188 846.496094 1005.414062 843.328125 1005.882812 C 840.164062 1006.351562 836.984375 1006.746094 833.800781 1007.058594 C 830.613281 1007.371094 827.421875 1007.605469 824.222656 1007.765625 C 821.027344 1007.921875 817.828125 1008 814.625 1008 C 811.421875 1008 808.222656 1007.921875 805.027344 1007.765625 C 801.828125 1007.605469 798.636719 1007.371094 795.449219 1007.058594 C 792.265625 1006.746094 789.085938 1006.351562 785.921875 1005.882812 C 782.753906 1005.414062 779.601562 1004.867188 776.460938 1004.242188 C 773.320312 1003.617188 770.199219 1002.914062 767.09375 1002.136719 C 763.988281 1001.359375 760.902344 1000.503906 757.839844 999.578125 C 754.773438 998.648438 751.734375 997.644531 748.722656 996.566406 C 745.707031 995.484375 742.71875 994.332031 739.761719 993.109375 C 736.804688 991.882812 733.878906 990.585938 730.984375 989.21875 C 728.089844 987.847656 725.230469 986.410156 722.410156 984.902344 C 719.585938 983.390625 716.800781 981.8125 714.054688 980.167969 C 711.308594 978.523438 708.605469 976.808594 705.941406 975.03125 C 703.28125 973.253906 700.664062 971.410156 698.089844 969.503906 C 695.519531 967.59375 692.996094 965.625 690.523438 963.59375 C 688.046875 961.5625 685.625 959.472656 683.25 957.324219 C 680.878906 955.171875 678.5625 952.964844 676.296875 950.703125 C 674.035156 948.4375 671.828125 946.121094 669.675781 943.75 C 667.527344 941.375 665.4375 938.953125 663.40625 936.476562 C 661.375 934.003906 659.40625 931.480469 657.496094 928.910156 C 655.589844 926.335938 653.746094 923.71875 651.96875 921.058594 C 650.191406 918.394531 648.476562 915.691406 646.832031 912.945312 C 645.1875 910.199219 643.609375 907.414062 642.097656 904.59375 C 640.589844 901.769531 639.152344 898.910156 637.78125 896.015625 C 636.414062 893.121094 635.117188 890.195312 633.890625 887.238281 C 632.667969 884.28125 631.515625 881.292969 630.4375 878.277344 C 629.355469 875.265625 628.351562 872.226562 627.425781 869.160156 C 626.496094 866.097656 625.640625 863.011719 624.863281 859.90625 C 624.085938 856.800781 623.382812 853.679688 622.757812 850.539062 C 622.132812 847.398438 621.585938 844.246094 621.117188 841.078125 C 620.648438 837.914062 620.257812 834.734375 619.941406 831.550781 C 619.628906 828.363281 619.394531 825.171875 619.234375 821.972656 C 619.078125 818.777344 619 815.578125 619 812.375 C 619 809.171875 619.078125 805.972656 619.234375 802.777344 C 619.394531 799.578125 619.628906 796.386719 619.941406 793.199219 C 620.257812 790.015625 620.648438 786.835938 621.117188 783.671875 C 621.585938 780.503906 622.132812 777.351562 622.757812 774.210938 C 623.382812 771.070312 624.085938 767.949219 624.863281 764.84375 C 625.640625 761.738281 626.496094 758.652344 627.425781 755.589844 C 628.351562 752.523438 629.355469 749.484375 630.4375 746.472656 C 631.515625 743.457031 632.667969 740.46875 633.890625 737.511719 C 635.117188 734.554688 636.414062 731.628906 637.78125 728.734375 C 639.152344 725.839844 640.589844 722.980469 642.097656 720.15625 C 643.609375 717.335938 645.1875 714.550781 646.832031 711.804688 C 648.476562 709.058594 650.191406 706.355469 651.96875 703.691406 C 653.746094 701.03125 655.589844 698.414062 657.496094 695.839844 C 659.40625 693.269531 661.375 690.746094 663.40625 688.273438 C 665.4375 685.796875 667.527344 683.375 669.675781 681 C 671.828125 678.628906 674.035156 676.3125 676.296875 674.046875 C 678.5625 671.785156 680.878906 669.578125 683.25 667.425781 C 685.625 665.277344 688.046875 663.1875 690.523438 661.15625 C 692.996094 659.125 695.519531 657.15625 698.089844 655.246094 C 700.664062 653.339844 703.28125 651.496094 705.941406 649.71875 C 708.605469 647.941406 711.308594 646.226562 714.054688 644.582031 C 716.800781 642.9375 719.585938 641.359375 722.410156 639.847656 C 725.230469 638.339844 728.089844 636.902344 730.984375 635.53125 C 733.878906 634.164062 736.804688 632.867188 739.761719 631.640625 C 742.71875 630.417969 745.707031 629.265625 748.722656 628.1875 C 751.734375 627.105469 754.773438 626.101562 757.839844 625.171875 C 760.902344 624.246094 763.988281 623.390625 767.09375 622.613281 C 770.199219 621.835938 773.320312 621.132812 776.460938 620.507812 C 779.601562 619.882812 782.753906 619.335938 785.921875 618.867188 C 789.085938 618.398438 792.265625 618.007812 795.449219 617.691406 C 798.636719 617.378906 801.828125 617.144531 805.027344 616.984375 C 808.222656 616.828125 811.421875 616.75 814.625 616.75 C 817.828125 616.75 821.027344 616.828125 824.222656 616.984375 C 827.421875 617.144531 830.613281 617.378906 833.800781 617.691406 C 836.984375 618.007812 840.164062 618.398438 843.328125 618.867188 C 846.496094 619.335938 849.648438 619.882812 852.789062 620.507812 C 855.929688 621.132812 859.050781 621.835938 862.15625 622.613281 C 865.261719 623.390625 868.347656 624.246094 871.410156 625.175781 C 874.476562 626.101562 877.515625 627.105469 880.527344 628.1875 C 883.542969 629.265625 886.53125 630.417969 889.488281 631.640625 C 892.445312 632.867188 895.371094 634.164062 898.265625 635.53125 C 901.160156 636.902344 904.019531 638.339844 906.84375 639.847656 C 909.664062 641.359375 912.449219 642.9375 915.195312 644.582031 C 917.941406 646.226562 920.644531 647.941406 923.308594 649.71875 C 925.96875 651.496094 928.585938 653.339844 931.160156 655.246094 C 933.730469 657.15625 936.253906 659.125 938.726562 661.15625 C 941.203125 663.1875 943.625 665.277344 946 667.425781 C 948.371094 669.578125 950.6875 671.785156 952.953125 674.046875 C 955.214844 676.3125 957.421875 678.628906 959.574219 681 C 961.722656 683.375 963.8125 685.796875 965.84375 688.273438 C 967.875 690.746094 969.84375 693.269531 971.753906 695.839844 C 973.660156 698.414062 975.503906 701.03125 977.28125 703.691406 C 979.058594 706.355469 980.773438 709.058594 982.417969 711.804688 C 984.0625 714.550781 985.640625 717.335938 987.152344 720.15625 C 988.660156 722.980469 990.097656 725.839844 991.46875 728.734375 C 992.835938 731.628906 994.132812 734.554688 995.359375 737.511719 C 996.585938 740.46875 997.734375 743.457031 998.816406 746.472656 C 999.894531 749.484375 1000.898438 752.523438 1001.828125 755.589844 C 1002.753906 758.652344 1003.609375 761.738281 1004.386719 764.84375 C 1005.164062 767.949219 1005.867188 771.070312 1006.492188 774.210938 C 1007.117188 777.351562 1007.664062 780.503906 1008.132812 783.671875 C 1008.601562 786.835938 1008.996094 790.015625 1009.308594 793.199219 C 1009.621094 796.386719 1009.855469 799.578125 1010.015625 802.777344 C 1010.171875 805.972656 1010.25 809.171875 1010.25 812.375 Z M 1010.25 812.375 " fill-opacity="1" fill-rule="nonzero"/></svg>