<?xml version="1.0" standalone="no"?>
<!DOCTYPE svg PUBLIC "-//W3C//DTD SVG 20010904//EN"
 "http://www.w3.org/TR/2001/REC-SVG-20010904/DTD/svg10.dtd">
<svg version="1.0" xmlns="http://www.w3.org/2000/svg"
 width="700.000000pt" height="700.000000pt" viewBox="0 0 700.000000 700.000000"
 preserveAspectRatio="xMidYMid meet">
<metadata>
Created by potrace 1.14, written by Peter Selinger 2001-2017
</metadata>
<g transform="translate(0.000000,700.000000) scale(0.100000,-0.100000)"
fill="#000000" stroke="none">
<path d="M4905 6289 c-240 -42 -424 -120 -585 -247 -47 -38 -171 -159 -205
-202 -118 -146 -223 -389 -250 -575 -28 -188 0 -452 64 -610 174 -434 536
-719 989 -780 43 -6 255 -7 292 -1 89 13 121 19 170 32 385 107 685 379 829
752 82 215 98 490 41 712 -25 96 -55 180 -87 244 -27 55 -93 168 -102 176 -4
3 -19 23 -36 45 -55 74 -182 191 -275 254 -135 90 -277 152 -412 180 -29 6
-64 14 -78 17 -44 10 -303 12 -355 3z"/>
<path d="M1789 6285 c-2 -1 -24 -6 -49 -9 -159 -21 -334 -90 -489 -193 -103
-68 -258 -221 -322 -318 -77 -115 -148 -270 -175 -377 -48 -197 -51 -400 -8
-587 83 -356 340 -675 665 -825 176 -81 329 -115 524 -114 150 0 242 15 373
57 317 104 591 347 727 645 332 730 -109 1572 -897 1710 -71 12 -339 21 -349
11z"/>
<path d="M1938 3166 c-1 -2 -43 -6 -93 -9 -293 -18 -563 -143 -775 -357 -236
-238 -355 -527 -353 -865 2 -479 291 -916 732 -1106 77 -33 169 -62 236 -75
11 -2 42 -8 68 -13 114 -21 318 -11 472 23 129 29 316 118 437 209 180 136
300 295 409 542 15 36 57 199 65 255 15 105 10 311 -11 410 -3 14 -7 37 -10
52 -8 41 -65 198 -92 253 -30 60 -121 198 -158 240 -15 17 -35 39 -44 50 -9
11 -42 43 -72 70 -203 184 -450 291 -714 311 -38 3 -75 7 -82 9 -6 2 -13 2
-15 1z"/>
<path d="M5007 3163 c-1 -1 -31 -4 -67 -8 -410 -40 -788 -309 -970 -690 -32
-68 -73 -182 -85 -235 -31 -145 -39 -312 -22 -450 31 -253 154 -498 345 -690
237 -238 526 -358 862 -358 322 -1 617 118 844 342 118 116 190 215 255 351
30 65 80 210 87 255 3 19 9 49 13 65 9 36 14 114 14 210 0 319 -123 614 -353
845 -208 210 -466 332 -750 355 -80 7 -171 11 -173 8z"/>
</g>
</svg>
